<?xml version="1.0" encoding="UTF-8" standalone="no"?>
<!-- Created with Inkscape (http://www.inkscape.org/) -->

<svg
   xmlns:dc="http://purl.org/dc/elements/1.1/"
   xmlns:cc="http://creativecommons.org/ns#"
   xmlns:rdf="http://www.w3.org/1999/02/22-rdf-syntax-ns#"
   xmlns:svg="http://www.w3.org/2000/svg"
   xmlns="http://www.w3.org/2000/svg"
   xmlns:inkscape="http://www.inkscape.org/namespaces/inkscape"
   version="1.1"
   width="425.20001"
   height="447.5625"
   id="svg2"
   xml:space="preserve"><metadata
     id="metadata8"><rdf:RDF><cc:Work
         rdf:about=""><dc:format>image/svg+xml</dc:format><dc:type
           rdf:resource="http://purl.org/dc/dcmitype/StillImage" /></cc:Work></rdf:RDF></metadata><defs
     id="defs6"><clipPath
       id="clipPath18"><path
         d="m 0,0 3401.57,0 0,3580.54 L 0,3580.54 0,0 z"
         inkscape:connector-curvature="0"
         id="path20" /></clipPath><clipPath
       id="clipPath30"><path
         d="M 0,3580.54 0,0 l 3401.57,0 0,3580.54 -3401.57,0 z"
         inkscape:connector-curvature="0"
         id="path32" /></clipPath></defs><g
     transform="matrix(1.25,0,0,-1.25,0,447.5625)"
     id="g10"><g
       transform="scale(0.1,0.1)"
       id="g12"><g
         id="g14"><g
           clip-path="url(#clipPath18)"
           id="g16"><path
             d="m 777.559,2323.82 c 307.631,0 307.631,440.27 0,440.27 -294.688,0 -268.672,-440.27 0,-440.27 M 348.5,3580.54 l 862.28,0 0,-312.03 -862.28,0 0,312.03 z m 1044.39,-765.1 c 147.38,-384.76 -60.61,-906.28 -615.331,-906.28 -554.723,0 -762.7113,521.52 -615.332,906.28 l -95.3481,0 0,406.01 1425.6511,0 0,-406.01 -99.64,0"
             inkscape:connector-curvature="0"
             id="path22"
             style="fill:#231f20;fill-opacity:1;fill-rule:nonzero;stroke:none" /><path
             d="m 2664.15,3094.77 c -397.47,0 -384.94,-594.28 0,-594.28 384.79,0 397.39,594.28 0,594.28 m 0,429.23 c 983.23,0 983.23,-1456.79 0,-1456.79 -983.24,0 -983.24,1456.79 0,1456.79"
             inkscape:connector-curvature="0"
             id="path24"
             style="fill:#231f20;fill-opacity:1;fill-rule:nonzero;stroke:none" /></g></g><g
         id="g26"><g
           clip-path="url(#clipPath30)"
           id="g28"><path
             d="M 0,179.148 465.09,0 779.602,725.352 1103.24,0 1559.4,179.148 779.602,1634.41 0,179.148"
             inkscape:connector-curvature="0"
             id="path34"
             style="fill:#231f20;fill-opacity:1;fill-rule:nonzero;stroke:none" /><path
             d="m 3263.95,1076.3 -741.46,0 0,-518.241 741.46,0 0,-493.1879 -1241.36,0 0,1504.6889 1241.36,0 0,-493.26"
             inkscape:connector-curvature="0"
             id="path36"
             style="fill:#231f20;fill-opacity:1;fill-rule:nonzero;stroke:none" /></g></g></g></g></svg>